<svg width="223" height="173" viewBox="0 0 223 173" fill="none" xmlns="http://www.w3.org/2000/svg">
<path d="M189.383 129.889C189.383 129.889 191.624 129.808 193.267 129.338C194.96 128.854 196.24 127.139 197.588 127.238C200.412 127.446 205.783 126.575 205.249 127.563C204.716 128.552 201.476 128.298 201.094 128.884C200.712 129.471 205.711 130.967 207.157 131.232C208.604 131.496 214.005 132.099 213.819 132.813C213.634 133.528 206.434 136.859 202.183 135.97C197.931 135.08 190.292 133.558 190.292 133.558L189.383 129.889Z" fill="#FFB27D"/>
<path d="M130.316 22.8728C124.064 19.6494 119.054 21.6719 119.054 21.6719C99.9214 19.4424 94.3414 41.6152 94.6 49.2391C94.8585 56.8631 96.7611 62.9501 87.7185 70.8505C76.9424 80.2661 79.4494 92.7079 85.0381 97.116C87.4588 99.028 90.6279 100.468 93.9836 101.553C98.1356 102.897 102.57 103.697 106.225 104.171C108.241 104.433 110.017 104.597 111.378 104.698L112.005 104.741C113.381 104.833 114.196 104.849 114.196 104.849C114.352 96.6597 117.99 92.4738 122.543 90.5813C122.543 90.5817 122.544 90.5819 122.545 90.5819C122.546 90.5819 122.547 90.5817 122.548 90.5813C123.605 90.1444 124.705 89.8175 125.831 89.6059V89.6059C128.94 89.0141 132.176 89.2048 134.863 89.724C138.699 90.4675 141.409 91.8787 141.013 92.6396C143.24 93.1707 145.2 93.3875 146.915 93.3246C149.424 93.2357 151.399 92.5496 152.923 91.3823C166.946 80.6498 142.334 29.0661 130.316 22.8728Z" fill="#163560"/>
<path d="M131.658 73.617C131.658 73.617 146.089 75.6633 151.092 82.3692C157.404 90.8462 163.614 114.746 168.133 119.023C172.651 123.3 191.539 129.684 191.539 129.684C191.539 129.684 192.238 133.802 190.071 135.056C186.402 137.185 167.877 136.259 157.125 130.524C146.812 125.02 139.507 112.983 139.507 112.983L131.658 73.617Z" fill="#8C9DF4"/>
<path d="M54.0606 107.715C54.0606 107.715 51.0453 102.113 48.2373 101.754C45.4293 101.395 40.3412 99.4779 40.6652 100.551C40.9892 101.624 44.214 102.021 44.4703 102.671C44.7267 103.321 39.5274 103.795 38.0569 103.767C36.5863 103.739 33.1478 103.327 33.1892 104.062C33.2307 104.796 39.0583 108.353 43.4023 108.324C47.7464 108.296 52.9195 110.435 52.9195 110.435L54.0606 107.715Z" fill="#FFB27D"/>
<path d="M104.476 113.97C104.476 113.97 102.234 117.539 98.3963 121.525C93.7698 126.323 86.8196 131.72 78.6683 132.177C74.7748 132.393 71.0919 131.236 67.7766 129.401C67.7726 129.4 67.7686 129.4 67.7646 129.401C58.3828 124.214 51.9464 113.646 51.9464 113.646C50.6493 108.823 53.0209 106.015 53.0209 106.015C53.0209 106.015 73.0293 111.948 75.0443 111.326C83.1563 108.833 88.8268 87.741 93.6247 81.0015C97.648 75.348 111.687 73.6182 111.687 73.6182L104.476 113.97Z" fill="#8C9DF4"/>
<path d="M98.4006 121.525C93.774 126.322 86.8238 131.72 78.6725 132.176C74.779 132.393 71.0961 131.236 67.7808 129.401C68.1583 129.484 77.8063 131.559 82.3249 124.996C86.934 118.299 92.2435 107.485 97.7973 111.747C100.189 113.585 99.7097 117.581 98.4006 121.525Z" fill="#6F84DD"/>
<path d="M148.346 118.418C147.925 121.693 147.33 124.944 146.565 128.157C145.286 133.576 143.075 135.704 142.116 136.403C141.968 136.516 141.81 136.614 141.644 136.698L124.557 140.859L118.55 142.32L99.6006 136.698C99.6006 136.698 90.9715 112.768 94.4373 99.2978C97.9031 85.8274 100.373 79.4152 100.373 79.4152C100.373 79.4152 112.693 74.4294 139.23 78.8505C139.235 78.8505 151.877 90.5802 148.346 118.418Z" fill="#8C9DF4"/>
<path d="M127.674 172.643C120.163 172.643 112.502 172.636 104.819 172.631L91.8011 172.623C93.7418 163.113 97.9789 149.186 99.8738 143.142C100.455 141.28 100.815 140.168 100.815 140.168H126.201C126.201 140.168 126.201 140.265 126.201 140.453V140.54C126.201 141.19 126.222 142.694 126.271 144.906C126.395 150.422 126.739 160.354 127.674 172.643Z" fill="#2B478B"/>
<path d="M156.333 172.655C147.221 172.655 137.57 172.655 127.673 172.648C120.162 172.648 112.502 172.641 104.818 172.636C102.509 167.345 105.109 152.878 106.556 145.955C106.638 145.567 106.714 145.196 106.787 144.862C106.812 144.751 106.836 144.643 106.859 144.537C107.187 143.056 107.397 142.17 107.397 142.17L111.143 141.845L112.491 141.729L115.633 141.458L125.646 140.597L126.192 140.55L140.554 139.313C140.554 139.313 141.35 140.372 142.581 142.16C146.577 147.961 155.179 161.431 156.199 171.287C156.247 171.706 156.291 172.162 156.333 172.655Z" fill="#2B478B"/>
<path d="M142.588 116.817C144.891 120.957 147.643 122.995 147.643 122.995C146.975 132.208 143.077 135.708 142.116 136.407L141.644 136.544L126.776 137.972C126.776 137.972 133.369 135.678 134.673 131.485C135.976 127.291 133.869 121.947 135.596 115.421C137.116 109.671 138.556 109.566 142.588 116.817Z" fill="#6F84DD"/>
<path d="M99.3113 135.696C99.3113 135.696 103.078 138.656 110.56 138.806C119.498 138.985 141.643 136.543 141.643 136.543C141.643 136.543 142.625 139.274 142.587 142.158C142.587 142.158 115.54 148.937 99.8688 143.148C99.8688 143.147 97.8473 139.368 99.3113 135.696Z" fill="#233862"/>
<path d="M112.491 141.724C112.48 141.298 112.415 140.875 112.297 140.465V140.465C112.27 140.366 112.238 140.271 112.203 140.175C112.031 139.684 111.778 139.225 111.454 138.817C110.706 137.878 109.622 137.287 108.415 137.287C107.466 137.294 106.555 137.656 105.863 138.302C105.793 138.364 105.726 138.428 105.661 138.496C105.2 138.976 104.848 139.549 104.629 140.175C104.435 140.721 104.336 141.295 104.338 141.874C104.332 142.831 104.605 143.77 105.124 144.577C105.486 145.141 105.977 145.612 106.556 145.952C107.118 146.282 107.759 146.456 108.411 146.457C108.911 146.454 109.405 146.352 109.865 146.158C110.325 145.963 110.742 145.681 111.091 145.326C111.542 144.87 111.898 144.331 112.138 143.738C112.378 143.146 112.498 142.512 112.49 141.874C112.494 141.823 112.494 141.773 112.491 141.724ZM111.144 141.871C111.144 143.566 110.042 144.963 108.646 145.1H108.639C108.567 145.109 108.494 145.114 108.421 145.113C108.155 145.114 107.89 145.068 107.64 144.978V144.978C107.358 144.875 107.097 144.723 106.868 144.529C106.162 143.943 105.699 142.97 105.699 141.871C105.696 141.281 105.835 140.699 106.105 140.173C106.356 139.67 106.746 139.248 107.228 138.957C107.5 138.796 107.802 138.691 108.115 138.648C108.218 138.633 108.321 138.626 108.424 138.626C108.664 138.625 108.902 138.661 109.13 138.735H109.136C109.766 138.952 110.297 139.387 110.631 139.961V139.961C110.671 140.027 110.711 140.095 110.747 140.166C111.011 140.683 111.15 141.254 111.152 141.833L111.144 141.871Z" fill="#6F84DD"/>
<path d="M131.001 74.8462C129.991 72.9636 127.103 63.3875 127.123 58.4169L126.266 58.5589L111.842 60.9629C111.842 60.9629 112.169 64.7836 112.18 68.3831V68.472C112.199 71.5979 112.14 73.1326 112.77 77.0107C113.055 78.7579 112.454 91.3016 118.492 90.4009C120.647 90.079 131.667 76.0895 131.001 74.8462Z" fill="#FFB27D"/>
<path d="M111.842 60.9632C111.842 60.9632 112.169 64.7839 112.18 68.3834C120.253 68.1916 124.517 61.9885 126.266 58.5592L111.842 60.9632Z" fill="#E8945B"/>
<path d="M109.147 65.4448C109.147 65.4448 128.238 65.758 128.256 53.9394C128.273 42.1209 130.743 34.2021 118.547 33.503C106.35 32.8039 103.981 37.3106 103.011 41.2538C102.041 45.1969 104.183 65.0589 109.147 65.4448Z" fill="#FFB27D"/>
<path d="M109.855 33.2138C109.855 33.2138 115.083 47.0787 123.107 49.1284C131.13 51.178 134.612 49.0427 134.612 49.0427C134.612 49.0427 128.457 44.1848 127.18 35.7111C127.179 35.7057 113.798 26.6141 109.855 33.2138Z" fill="#163560"/>
<path d="M111.149 34.3383C111.149 34.3383 107.272 35.7788 105.677 38.5882C104.116 41.3347 102.787 44.9744 103.095 49.4378C103.095 49.4378 99.1568 40.0135 103.583 34.683C108.277 29.0295 111.149 34.3383 111.149 34.3383Z" fill="#163560"/>
<path d="M116.837 90.6418C116.837 90.6418 129.273 77.0706 129.778 71.6036C129.778 71.6036 132.364 71.6534 137.104 74.0965C137.276 74.1846 137.409 74.3336 137.476 74.514C137.544 74.6945 137.541 74.8935 137.468 75.072C136.54 77.2538 133.348 84.3488 130.289 86.4288C130.289 86.4288 127.658 86.0462 125.588 85.1888C125.588 85.1888 126.897 87.3652 127.93 88.6648C127.929 88.6691 122.199 91.859 116.837 90.6418Z" fill="#6F84DD"/>
<path d="M112.205 71.3783C112.205 71.3783 112.492 80.1078 116.836 90.6419C116.836 90.6419 110.945 89.4919 107.942 85.3461C107.942 85.3461 108.892 83.135 109.687 82.6267C109.687 82.6267 107.921 81.9168 106.805 82.9378C106.805 82.9378 105.623 75.2423 106.527 73.8928C106.91 73.3336 111.287 71.1344 112.205 71.3783Z" fill="#6F84DD"/>
<path d="M117.776 90.6466C117.777 90.4621 117.723 90.2814 117.62 90.1274C117.518 89.9735 117.371 89.8532 117.2 89.7818C117.029 89.7104 116.84 89.691 116.658 89.7262C116.475 89.7613 116.308 89.8495 116.176 89.9794C116.044 90.1093 115.953 90.2751 115.916 90.456C115.879 90.6368 115.897 90.8246 115.967 90.9954C116.037 91.1663 116.157 91.3126 116.311 91.4158C116.465 91.5191 116.646 91.5747 116.832 91.5755C116.956 91.5762 117.078 91.5528 117.192 91.5064C117.306 91.4601 117.41 91.3919 117.498 91.3056C117.586 91.2193 117.655 91.1167 117.703 91.0036C117.751 90.8905 117.775 90.7692 117.776 90.6466V90.6466Z" fill="#233862"/>
<path d="M112.697 103.849C112.698 103.664 112.644 103.483 112.541 103.329C112.439 103.175 112.293 103.055 112.122 102.983C111.95 102.911 111.762 102.892 111.579 102.927C111.397 102.962 111.229 103.05 111.097 103.18C110.965 103.31 110.874 103.476 110.837 103.657C110.8 103.837 110.818 104.025 110.888 104.196C110.958 104.367 111.078 104.513 111.232 104.617C111.386 104.72 111.567 104.776 111.753 104.776C112.002 104.777 112.241 104.68 112.418 104.506C112.595 104.332 112.695 104.096 112.697 103.849V103.849Z" fill="#233862"/>
<path d="M111.676 119.356C111.677 119.172 111.623 118.991 111.52 118.837C111.418 118.683 111.272 118.562 111.101 118.491C110.929 118.419 110.741 118.4 110.558 118.435C110.376 118.47 110.208 118.558 110.076 118.688C109.944 118.817 109.853 118.983 109.816 119.164C109.779 119.345 109.797 119.533 109.867 119.704C109.937 119.875 110.057 120.021 110.211 120.124C110.365 120.228 110.546 120.283 110.732 120.284C110.981 120.285 111.22 120.188 111.397 120.014C111.574 119.84 111.674 119.604 111.676 119.356V119.356Z" fill="#233862"/>
<path d="M68.2182 102.049H13.917V102.828H68.2182V102.049Z" fill="#CCD8FF"/>
<path d="M68.7747 102.83H13.3607V103.609H68.7747V102.83Z" fill="#A9BAFF"/>
<path d="M69.538 103.609H12.5956V104.388H69.538V103.609Z" fill="#8C9DF4"/>
<path d="M65.9669 72.241H15.1839V102.05H65.9669V72.241Z" fill="#8C9DF4"/>
<path d="M69.4154 72.8099H12.172L41.3146 58.1343L69.4154 72.8099Z" fill="#CCD8FF"/>
<path d="M20.8607 70.8518L60.7259 70.7683L41.2935 60.7284L20.8607 70.8518Z" fill="#6F84DD"/>
<path d="M68.199 72.81H13.6653V74.0662H68.199V72.81Z" fill="#8C9DF4"/>
<path d="M23.0861 72.241H17.7145V74.1671H23.0861V72.241Z" fill="#CCD8FF"/>
<path d="M21.8808 74.1667H18.92V102.049H21.8808V74.1667Z" fill="#CCD8FF"/>
<path d="M34.6937 72.241H29.3221V74.1671H34.6937V72.241Z" fill="#CCD8FF"/>
<path d="M33.4882 74.1667H30.5275V102.049H33.4882V74.1667Z" fill="#CCD8FF"/>
<path d="M52.94 72.241H47.5683V74.1671H52.94V72.241Z" fill="#CCD8FF"/>
<path d="M51.7337 74.1667H48.7729V102.049H51.7337V74.1667Z" fill="#CCD8FF"/>
<path d="M63.8691 72.241H58.4974V74.1671H63.8691V72.241Z" fill="#CCD8FF"/>
<path d="M62.6634 74.1667H59.7026V102.049H62.6634V74.1667Z" fill="#CCD8FF"/>
<path d="M40.3338 90.6148H40.9884C41.8521 90.6151 42.6804 90.9562 43.291 91.5631C43.9017 92.17 44.2447 92.9931 44.2447 93.8513V102.05H36.8767V94.0496C36.8767 93.1386 37.2409 92.265 37.8893 91.6208C38.5376 90.9767 39.4169 90.6148 40.3338 90.6148V90.6148Z" fill="#6F84DD"/>
<path d="M36.2805 79.3459H36.5904C36.7932 79.3449 36.9943 79.3838 37.1819 79.4603C37.3696 79.5369 37.5401 79.6496 37.6837 79.792C37.8273 79.9344 37.9412 80.1036 38.0186 80.2899C38.0961 80.4762 38.1357 80.6758 38.1351 80.8774V84.7479H34.654V80.9673C34.654 80.5362 34.8264 80.1226 35.1333 79.8177C35.4402 79.5128 35.8564 79.3415 36.2904 79.3415L36.2805 79.3459Z" fill="#6F84DD"/>
<path d="M26.0973 79.3458H26.4072C26.6094 79.3458 26.8096 79.3855 26.9964 79.4625C27.1832 79.5395 27.3528 79.6524 27.4956 79.7947C27.6384 79.9369 27.7515 80.1058 27.8285 80.2916C27.9055 80.4774 27.9448 80.6764 27.9442 80.8773V84.7479H24.4653V80.9673C24.4665 80.5376 24.6388 80.1259 24.9446 79.822C25.2504 79.5182 25.6649 79.347 26.0973 79.3458V79.3458Z" fill="#6F84DD"/>
<path d="M26.0973 90.9341H26.4072C26.8148 90.9341 27.2058 91.095 27.494 91.3814C27.7823 91.6678 27.9443 92.0562 27.9443 92.4613V96.3318H24.4653V92.5556C24.4665 92.1259 24.6388 91.7141 24.9446 91.4103C25.2504 91.1064 25.6649 90.9352 26.0973 90.9341V90.9341Z" fill="#6F84DD"/>
<path d="M55.6103 79.3458H55.9168C56.1194 79.3453 56.3201 79.3845 56.5074 79.4612C56.6947 79.538 56.8648 79.6508 57.0081 79.7931C57.1513 79.9355 57.2648 80.1045 57.3421 80.2906C57.4194 80.4767 57.4588 80.6761 57.4583 80.8773V84.7479H53.9783V80.9673C53.9794 80.5376 54.1517 80.1259 54.4575 79.822C54.7634 79.5182 55.1778 79.347 55.6103 79.3458V79.3458Z" fill="#6F84DD"/>
<path d="M55.6103 90.9341H55.9168C56.3245 90.9341 56.7154 91.095 57.0037 91.3814C57.292 91.6678 57.4539 92.0562 57.4539 92.4613V96.3318H53.9783V92.5556C53.9794 92.1259 54.1517 91.7141 54.4575 91.4103C54.7634 91.1064 55.1778 90.9352 55.6103 90.9341V90.9341Z" fill="#6F84DD"/>
<path d="M45.0835 79.3458H45.3933C45.5955 79.3458 45.7958 79.3855 45.9825 79.4625C46.1693 79.5395 46.3389 79.6524 46.4817 79.7947C46.6245 79.9369 46.7377 80.1058 46.8146 80.2916C46.8916 80.4774 46.931 80.6764 46.9304 80.8773V84.7479H43.4515V80.9673C43.4526 80.5376 43.6249 80.1259 43.9308 79.822C44.2366 79.5182 44.651 79.347 45.0835 79.3458V79.3458Z" fill="#6F84DD"/>
</svg>
