<svg width="274" height="206" viewBox="0 0 274 206" fill="none" xmlns="http://www.w3.org/2000/svg">
<g clip-path="url(#clip0_96_81)">
<path d="M240.796 147.895C240.796 147.895 243.84 147.784 246.073 147.146C248.373 146.488 250.114 144.158 251.944 144.292C255.782 144.575 263.08 143.391 262.355 144.734C261.63 146.077 257.227 145.733 256.709 146.529C256.19 147.326 262.982 149.36 264.947 149.719C266.913 150.079 274.252 150.898 274 151.868C273.748 152.839 263.965 157.366 258.188 156.157C252.411 154.948 242.03 152.88 242.03 152.88L240.796 147.895Z" fill="#FFB27D"/>
<path d="M160.536 2.48164C152.041 -1.8984 145.232 0.849805 145.232 0.849805C119.235 -2.17969 111.653 27.9489 112.004 38.3084C112.355 48.6679 114.941 56.939 102.653 67.674C88.0109 80.468 91.4173 97.374 99.0113 103.364C102.301 105.962 106.607 107.919 111.166 109.393C116.808 111.22 122.834 112.306 127.8 112.95C130.539 113.307 132.952 113.529 134.802 113.666L135.655 113.725C137.524 113.85 138.631 113.872 138.631 113.872C138.843 102.744 143.787 97.0559 149.973 94.4844C149.974 94.485 149.975 94.4853 149.976 94.4853C149.978 94.4853 149.979 94.485 149.98 94.4844C151.417 93.8908 152.912 93.4466 154.44 93.1589C158.665 92.3548 163.063 92.614 166.714 93.3195C171.926 94.3298 175.608 96.2474 175.07 97.2812C178.097 98.0029 180.759 98.2974 183.09 98.212C186.499 98.0913 189.183 97.159 191.254 95.5728C210.308 80.9894 176.865 10.8971 160.536 2.48164Z" fill="#163560"/>
<path d="M162.359 71.4326C162.359 71.4326 181.968 74.2132 188.766 83.3252C197.342 94.8438 205.781 127.319 211.921 133.13C218.061 138.942 243.726 147.616 243.726 147.616C243.726 147.616 244.675 153.213 241.731 154.917C236.746 157.809 211.574 156.552 196.964 148.758C182.95 141.279 173.025 124.924 173.025 124.924L162.359 71.4326Z" fill="#8C9DF4"/>
<path d="M56.919 117.765C56.919 117.765 52.8218 110.152 49.0062 109.664C45.1907 109.177 38.2771 106.571 38.7173 108.03C39.1576 109.488 43.5394 110.027 43.8877 110.91C44.2361 111.794 37.1712 112.438 35.1731 112.399C33.1749 112.361 28.5025 111.801 28.5589 112.8C28.6152 113.798 36.5338 118.631 42.4365 118.592C48.3392 118.554 55.3685 121.46 55.3685 121.46L56.919 117.765Z" fill="#FFB27D"/>
<path d="M125.424 126.264C125.424 126.264 122.377 131.114 117.163 136.531C110.876 143.049 101.432 150.384 90.356 151.004C85.0655 151.298 80.0612 149.725 75.5563 147.232C75.551 147.231 75.5454 147.231 75.54 147.232C62.7919 140.185 54.0461 125.824 54.0461 125.824C52.2836 119.271 55.5062 115.455 55.5062 115.455C55.5062 115.455 82.6938 123.517 85.4317 122.672C96.4544 119.284 104.16 90.6243 110.679 81.4666C116.146 73.7846 135.222 71.434 135.222 71.434L125.424 126.264Z" fill="#8C9DF4"/>
<path d="M117.169 136.531C110.882 143.049 101.438 150.384 90.3619 151.004C85.0715 151.298 80.0671 149.725 75.5623 147.232C76.0751 147.345 89.185 150.164 95.3248 141.247C101.588 132.148 108.802 117.452 116.349 123.245C119.598 125.741 118.947 131.171 117.169 136.531Z" fill="#6F84DD"/>
<path d="M185.035 132.308C184.462 136.758 183.655 141.175 182.615 145.541C180.877 152.905 177.872 155.796 176.569 156.746C176.368 156.899 176.154 157.033 175.929 157.147L152.711 162.801L144.547 164.786L118.799 157.147C118.799 157.147 107.074 124.631 111.783 106.327C116.493 88.0234 119.849 79.3104 119.849 79.3104C119.849 79.3104 136.589 72.5357 172.648 78.5431C172.654 78.5431 189.833 94.4815 185.035 132.308Z" fill="#8C9DF4"/>
<path d="M156.944 205.99C146.738 205.99 136.329 205.981 125.889 205.974L108.2 205.963C110.838 193.041 116.595 174.116 119.17 165.904C119.96 163.373 120.449 161.862 120.449 161.862H154.943C154.943 161.862 154.943 161.995 154.943 162.25V162.368C154.943 163.251 154.971 165.295 155.038 168.301C155.207 175.796 155.674 189.291 156.944 205.99Z" fill="#2B478B"/>
<path d="M195.888 206.007C183.506 206.007 170.392 206.007 156.944 205.997C146.738 205.997 136.329 205.988 125.889 205.981C122.751 198.792 126.283 179.134 128.251 169.727C128.362 169.2 128.465 168.696 128.565 168.242C128.598 168.091 128.631 167.944 128.663 167.801C129.107 165.787 129.393 164.584 129.393 164.584L134.484 164.142L136.314 163.985L140.584 163.616L154.19 162.447L154.931 162.382L174.448 160.702C174.448 160.702 175.528 162.141 177.202 164.571C182.632 172.453 194.32 190.755 195.706 204.149C195.77 204.718 195.831 205.338 195.888 206.007Z" fill="#2B478B"/>
<path d="M177.211 130.133C180.34 135.759 184.078 138.528 184.078 138.528C183.171 151.046 177.875 155.802 176.569 156.752L175.927 156.939L155.724 158.879C155.724 158.879 164.683 155.762 166.455 150.064C168.226 144.366 165.362 137.104 167.709 128.236C169.775 120.423 171.732 120.28 177.211 130.133Z" fill="#6F84DD"/>
<path d="M118.406 155.786C118.406 155.786 123.525 159.808 133.691 160.011C145.836 160.254 175.927 156.936 175.927 156.936C175.927 156.936 177.261 160.647 177.209 164.566C177.209 164.566 140.458 173.777 119.164 165.911C119.164 165.91 116.417 160.776 118.406 155.786Z" fill="#233862"/>
<path d="M136.314 163.977C136.3 163.398 136.211 162.823 136.051 162.266C136.014 162.132 135.971 162.002 135.923 161.873C135.69 161.205 135.346 160.582 134.905 160.027C133.889 158.752 132.416 157.948 130.776 157.948C129.487 157.957 128.248 158.45 127.308 159.328C127.213 159.412 127.122 159.499 127.034 159.591C126.407 160.243 125.929 161.021 125.631 161.873C125.367 162.614 125.233 163.394 125.235 164.181C125.228 165.482 125.599 166.757 126.304 167.854C126.796 168.62 127.463 169.261 128.251 169.723C129.014 170.17 129.884 170.407 130.771 170.409C131.45 170.404 132.121 170.265 132.746 170.002C133.371 169.738 133.938 169.354 134.413 168.871C135.025 168.253 135.508 167.52 135.835 166.715C136.161 165.91 136.323 165.048 136.313 164.181C136.319 164.111 136.319 164.044 136.314 163.977ZM134.484 164.178C134.484 166.48 132.987 168.378 131.089 168.565H131.08C130.982 168.577 130.883 168.583 130.784 168.583C130.422 168.583 130.063 168.521 129.723 168.399C129.339 168.259 128.984 168.053 128.674 167.789C127.714 166.992 127.085 165.671 127.085 164.178C127.081 163.376 127.27 162.584 127.637 161.87C127.978 161.187 128.508 160.613 129.164 160.217C129.533 159.998 129.943 159.856 130.369 159.798C130.508 159.777 130.648 159.768 130.788 159.768C131.114 159.766 131.438 159.816 131.747 159.915H131.756C132.612 160.211 133.333 160.802 133.787 161.581C133.842 161.671 133.895 161.764 133.944 161.861C134.304 162.563 134.492 163.339 134.496 164.126L134.484 164.178Z" fill="#6F84DD"/>
<path d="M161.465 73.1027C160.094 70.5445 156.169 57.5325 156.197 50.7784L155.032 50.9713L135.432 54.2379C135.432 54.2379 135.877 59.4294 135.892 64.3205V64.4413C135.917 68.6888 135.837 70.7742 136.694 76.0438C137.081 78.4179 136.264 95.4623 144.469 94.2385C147.396 93.8011 162.371 74.792 161.465 73.1027Z" fill="#FFB27D"/>
<path d="M135.432 54.2379C135.432 54.2379 135.877 59.4294 135.892 64.3205C146.861 64.0599 152.656 55.6312 155.032 50.9713L135.432 54.2379Z" fill="#E8945B"/>
<path d="M131.771 60.3278C131.771 60.3278 157.712 60.7534 157.736 44.6943C157.759 28.6352 161.115 17.8751 144.543 16.9251C127.97 15.9752 124.751 22.099 123.433 27.4569C122.115 32.8149 125.025 59.8035 131.771 60.3278Z" fill="#FFB27D"/>
<path d="M132.733 16.5319C132.733 16.5319 139.837 35.3716 150.739 38.1567C161.642 40.9417 166.372 38.0403 166.372 38.0403C166.372 38.0403 158.008 31.4393 156.274 19.9252C156.273 19.9178 138.09 7.56416 132.733 16.5319Z" fill="#163560"/>
<path d="M134.491 18.0606C134.491 18.0606 129.223 20.018 127.056 23.8354C124.934 27.5674 123.129 32.513 123.547 38.5779C123.547 38.5779 118.196 25.7721 124.21 18.529C130.588 10.847 134.491 18.0606 134.491 18.0606Z" fill="#163560"/>
<path d="M142.22 94.5654C142.22 94.5654 159.119 76.1248 159.805 68.6961C159.805 68.6961 163.318 68.7639 169.759 72.0835C169.993 72.2033 170.173 72.4056 170.265 72.6509C170.357 72.8961 170.353 73.1665 170.254 73.409C168.993 76.3737 164.655 86.0145 160.499 88.8407C160.499 88.8407 156.923 88.3208 154.111 87.1559C154.111 87.1559 155.89 90.1132 157.294 91.879C157.292 91.8849 149.506 96.2193 142.22 94.5654Z" fill="#6F84DD"/>
<path d="M135.926 68.3898C135.926 68.3898 136.316 80.2515 142.219 94.5654C142.219 94.5654 134.214 93.0028 130.133 87.3694C130.133 87.3694 131.424 84.365 132.505 83.6742C132.505 83.6742 130.105 82.7096 128.588 84.0969C128.588 84.0969 126.982 73.6402 128.21 71.8066C128.731 71.0467 134.678 68.0584 135.926 68.3898Z" fill="#6F84DD"/>
<path d="M143.495 94.5713C143.496 94.3205 143.422 94.075 143.283 93.8658C143.144 93.6567 142.945 93.4932 142.713 93.3962C142.48 93.2991 142.223 93.2728 141.976 93.3206C141.728 93.3684 141.5 93.4881 141.32 93.6646C141.141 93.8411 141.018 94.0665 140.968 94.3123C140.918 94.558 140.942 94.8131 141.037 95.0453C141.133 95.2774 141.295 95.4762 141.505 95.6165C141.714 95.7568 141.96 95.8323 142.213 95.8335C142.38 95.8345 142.547 95.8026 142.702 95.7396C142.857 95.6767 142.998 95.5839 143.117 95.4667C143.236 95.3495 143.331 95.21 143.396 95.0564C143.461 94.9027 143.494 94.7379 143.495 94.5713Z" fill="#233862"/>
<path d="M136.595 112.511C136.596 112.26 136.523 112.015 136.383 111.805C136.244 111.596 136.046 111.432 135.813 111.335C135.58 111.238 135.324 111.211 135.076 111.259C134.828 111.306 134.6 111.426 134.421 111.603C134.241 111.779 134.118 112.004 134.068 112.25C134.017 112.496 134.041 112.751 134.137 112.983C134.232 113.216 134.395 113.414 134.604 113.555C134.813 113.695 135.06 113.771 135.312 113.772C135.65 113.773 135.975 113.641 136.216 113.405C136.456 113.168 136.592 112.847 136.595 112.511Z" fill="#233862"/>
<path d="M135.207 133.584C135.209 133.333 135.135 133.087 134.996 132.878C134.857 132.668 134.658 132.505 134.426 132.407C134.193 132.31 133.936 132.284 133.689 132.331C133.441 132.379 133.213 132.499 133.033 132.675C132.854 132.851 132.731 133.077 132.68 133.323C132.63 133.568 132.654 133.824 132.749 134.056C132.845 134.288 133.007 134.487 133.217 134.627C133.426 134.768 133.672 134.843 133.925 134.844C134.263 134.846 134.588 134.714 134.829 134.478C135.069 134.241 135.205 133.92 135.207 133.584Z" fill="#233862"/>
<path d="M76.1567 110.066H2.37183V111.125H76.1567V110.066Z" fill="#CCD8FF"/>
<path d="M76.9126 111.127H1.61572V112.186H76.9126V111.127Z" fill="#A9BAFF"/>
<path d="M77.9503 112.186H0.57666V113.245H77.9503V112.186Z" fill="#8C9DF4"/>
<path d="M73.0971 69.5621H4.09277V110.066H73.0971V69.5621Z" fill="#8C9DF4"/>
<path d="M77.7828 70.3353H0L39.5992 50.394L77.7828 70.3353Z" fill="#CCD8FF"/>
<path d="M11.8069 67.6741L65.976 67.5607L39.5711 53.9183L11.8069 67.6741Z" fill="#6F84DD"/>
<path d="M76.1299 70.3353H2.0293V72.0423H76.1299V70.3353Z" fill="#8C9DF4"/>
<path d="M14.8308 69.5621H7.53174V72.1792H14.8308V69.5621Z" fill="#CCD8FF"/>
<path d="M13.1927 72.1792H9.16968V110.066H13.1927V72.1792Z" fill="#CCD8FF"/>
<path d="M30.603 69.5621H23.304V72.1792H30.603V69.5621Z" fill="#CCD8FF"/>
<path d="M28.965 72.1792H24.9419V110.066H28.965V72.1792Z" fill="#CCD8FF"/>
<path d="M55.3965 69.5621H48.0974V72.1792H55.3965V69.5621Z" fill="#CCD8FF"/>
<path d="M53.757 72.1792H49.7339V110.066H53.757V72.1792Z" fill="#CCD8FF"/>
<path d="M70.2465 69.5621H62.9475V72.1792H70.2465V69.5621Z" fill="#CCD8FF"/>
<path d="M68.6085 72.1792H64.5854V110.066H68.6085V72.1792Z" fill="#CCD8FF"/>
<path d="M38.2666 94.5286H39.156C40.3297 94.529 41.4551 94.9925 42.2849 95.8172C43.1147 96.6419 43.5808 97.7602 43.5808 98.9263V110.066H33.5691V99.1958C33.5691 97.958 34.064 96.7709 34.945 95.8956C35.8259 95.0203 37.0208 94.5286 38.2666 94.5286Z" fill="#6F84DD"/>
<path d="M32.7597 79.2162H33.1807C33.4564 79.2148 33.7296 79.2677 33.9846 79.3717C34.2395 79.4757 34.4713 79.6289 34.6664 79.8224C34.8615 80.0158 35.0162 80.2457 35.1214 80.4989C35.2267 80.752 35.2805 81.0233 35.2797 81.2972V86.5565H30.5496V81.4194C30.5496 80.8335 30.7838 80.2716 31.2008 79.8573C31.6178 79.443 32.1834 79.2103 32.7731 79.2103L32.7597 79.2162Z" fill="#6F84DD"/>
<path d="M18.9222 79.2162H19.3432C19.6179 79.2162 19.89 79.27 20.1438 79.3747C20.3976 79.4793 20.6281 79.6327 20.8221 79.826C21.0161 80.0194 21.1699 80.2488 21.2745 80.5013C21.3791 80.7537 21.4325 81.0242 21.4318 81.2972V86.5565H16.7046V81.4194C16.7062 80.8356 16.9403 80.2761 17.3558 79.8632C17.7714 79.4503 18.3345 79.2177 18.9222 79.2162Z" fill="#6F84DD"/>
<path d="M18.9222 94.9631H19.3432C19.8971 94.9631 20.4283 95.1817 20.82 95.5709C21.2117 95.96 21.4318 96.4879 21.4318 97.0382V102.298H16.7046V97.1663C16.7062 96.5825 16.9403 96.023 17.3558 95.6101C17.7714 95.1973 18.3345 94.9646 18.9222 94.9631Z" fill="#6F84DD"/>
<path d="M59.0252 79.2162H59.4417C59.717 79.2154 59.9897 79.2687 60.2442 79.373C60.4987 79.4773 60.7299 79.6306 60.9245 79.824C61.1192 80.0173 61.2734 80.2471 61.3784 80.4999C61.4834 80.7527 61.537 81.0237 61.5363 81.2972V86.5565H56.8076V81.4194C56.8092 80.8356 57.0433 80.2761 57.4589 79.8632C57.8744 79.4504 58.4375 79.2177 59.0252 79.2162Z" fill="#6F84DD"/>
<path d="M59.0252 94.9631H59.4417C59.9957 94.9631 60.5269 95.1817 60.9186 95.5709C61.3103 95.96 61.5303 96.4879 61.5303 97.0382V102.298H56.8076V97.1663C56.8092 96.5825 57.0433 96.023 57.4589 95.6101C57.8744 95.1973 58.4375 94.9646 59.0252 94.9631Z" fill="#6F84DD"/>
<path d="M44.7207 79.2162H45.1417C45.4165 79.2162 45.6886 79.27 45.9424 79.3747C46.1962 79.4793 46.4267 79.6327 46.6207 79.826C46.8147 80.0194 46.9685 80.2488 47.0731 80.5013C47.1777 80.7537 47.2311 81.0242 47.2303 81.2972V86.5565H42.5032V81.4194C42.5047 80.8356 42.7389 80.2761 43.1544 79.8632C43.57 79.4503 44.1331 79.2177 44.7207 79.2162Z" fill="#6F84DD"/>
</g>
<defs>
<clipPath id="clip0_96_81">
<rect width="274" height="206" fill="white"/>
</clipPath>
</defs>
</svg>
