<svg width="196" height="173" viewBox="0 0 196 173" fill="none" xmlns="http://www.w3.org/2000/svg">
<g clip-path="url(#clip0_2_3147)">
<path d="M63.5871 12.2424H51.3989V157.044H63.5871V12.2424Z" fill="#C3DAFC"/>
<path d="M195.162 80.875H63.587V84.6432H195.162V80.875Z" fill="#699DEE"/>
<path d="M195.162 138.438H63.587V142.206H195.162V138.438Z" fill="#699DEE"/>
<path d="M130.055 80.875H162.819V53.9668H130.055V80.875Z" fill="#A9C8ED"/>
<path d="M146.436 80.875H179.2V53.9668H146.436V80.875Z" fill="#D4E4F8"/>
<path d="M130.075 74.0507H135.266L134.809 72.5958L135.266 71.5566H130.075V74.0507Z" fill="#9DC3F3"/>
<path d="M146.437 62.2947H151.629L151.172 60.8385L151.629 59.7993H146.437V62.2947Z" fill="#E3F0FF"/>
<path d="M146.436 59.7993H141.245L141.703 61.2542L141.245 62.2947H146.436V59.7993Z" fill="#9DC3F3"/>
<path d="M179.201 74.3394H174.009L174.467 75.7943L174.009 76.8336H179.201V74.3394Z" fill="#E3F0FF"/>
<path d="M177.055 55.7911H167.627V59.445H177.055V55.7911Z" fill="white"/>
<path d="M88.0086 80.875H120.772V53.9668H88.0086V80.875Z" fill="#C3DAFC"/>
<path d="M104.391 80.875H137.154V53.9668H104.391V80.875Z" fill="#D4E4F8"/>
<path d="M88.0292 74.0507H93.2203L92.763 72.5958L93.2203 71.5566H88.0292V74.0507Z" fill="#9DC3F3"/>
<path d="M104.391 62.2947H109.583L109.126 60.8385L109.583 59.7993H104.391V62.2947Z" fill="#E3F0FF"/>
<path d="M104.391 59.7993H99.1997L99.657 61.2542L99.1997 62.2947H104.391V59.7993Z" fill="#9DC3F3"/>
<path d="M137.156 74.3394H131.964L132.422 75.7943L131.964 76.8336H137.156V74.3394Z" fill="#E3F0FF"/>
<path d="M137.156 59.445H131.964L132.422 60.9L131.964 61.9392H137.156V59.445Z" fill="#E3F0FF"/>
<path d="M123.067 72.039H107.7V77.9934H123.067V72.039Z" fill="white"/>
<path d="M130.056 138.35H158.372V115.094H130.056V138.35Z" fill="#C3DAFC"/>
<path d="M144.214 138.35H172.532V115.094H144.214V138.35Z" fill="#D4E4F8"/>
<path d="M130.072 132.453H134.559L134.163 131.195L134.559 130.296H130.072V132.453Z" fill="#9DC3F3"/>
<path d="M144.214 122.291H148.701L148.305 121.034L148.701 120.135H144.214V122.291Z" fill="#E3F0FF"/>
<path d="M144.214 120.135H139.726L140.122 121.393L139.726 122.291H144.214V120.135Z" fill="#9DC3F3"/>
<path d="M172.532 132.703H168.045L168.44 133.96L168.045 134.858H172.532V132.703Z" fill="#E3F0FF"/>
<path d="M170.677 116.67H162.529V119.828H170.677V116.67Z" fill="white"/>
<path d="M76.2738 138.35H109.037V111.442H76.2738V138.35Z" fill="#C3DAFC"/>
<path d="M92.6561 138.35H125.419V111.442H92.6561V138.35Z" fill="#D4E4F8"/>
<path d="M76.2932 131.526H81.4843L81.0271 130.071L81.4843 129.032H76.2932V131.526Z" fill="#2A4E96"/>
<path d="M92.656 119.77H97.8471L97.3898 118.315L97.8471 117.275H92.656V119.77Z" fill="#618DC1"/>
<path d="M92.6563 117.275H87.4639L87.9212 118.731L87.4639 119.77H92.6563V117.275Z" fill="#2A4E96"/>
<path d="M125.419 131.815H120.228L120.686 133.271L120.228 134.31H125.419V131.815Z" fill="#618DC1"/>
<path d="M123.274 113.267H113.846V116.919H123.274V113.267Z" fill="white"/>
<path d="M85.4954 53.8436H110.543V33.2733H85.4954V53.8436Z" fill="#C3DAFC"/>
<path d="M98.0198 53.8436H123.067V33.2733H98.0198V53.8436Z" fill="#D4E4F8"/>
<path d="M85.5107 48.6269H89.4794L89.1304 47.5145L89.4794 46.7191H85.5107V48.6269Z" fill="#9DC3F3"/>
<path d="M98.0198 39.6383H101.988L101.638 38.5259L101.988 37.7318H98.0198V39.6383Z" fill="#E3F0FF"/>
<path d="M98.0198 37.7318H94.0511L94.4002 38.8441L94.0511 39.6383H98.0198V37.7318Z" fill="#9DC3F3"/>
<path d="M123.067 48.8476H119.099L119.448 49.96L119.099 50.7554H123.067V48.8476Z" fill="#E3F0FF"/>
<path d="M121.428 34.6679H114.219V37.461H121.428V34.6679Z" fill="white"/>
<path d="M130.247 53.8436H155.295V33.2733H130.247V53.8436Z" fill="#C3DAFC"/>
<path d="M142.77 53.8436H167.818V33.2733H142.77V53.8436Z" fill="#D4E4F8"/>
<path d="M130.261 48.6269H134.23L133.881 47.5145L134.23 46.7191H130.261V48.6269Z" fill="#9DC3F3"/>
<path d="M142.77 39.6383H146.739L146.39 38.5259L146.739 37.7318H142.77V39.6383Z" fill="#E3F0FF"/>
<path d="M142.77 37.7318H138.802L139.152 38.8441L138.802 39.6383H142.77V37.7318Z" fill="#9DC3F3"/>
<path d="M167.818 48.8476H163.849L164.2 49.96L163.849 50.7554H167.818V48.8476Z" fill="#E3F0FF"/>
<path d="M166.178 34.6679H158.97V37.461H166.178V34.6679Z" fill="white"/>
<path d="M167.629 122.761H147.209C145.776 122.761 144.615 123.918 144.615 125.345V143.965C144.615 145.392 145.776 146.549 147.209 146.549H167.629C169.061 146.549 170.223 145.392 170.223 143.965V125.345C170.223 123.918 169.061 122.761 167.629 122.761Z" fill="#163560"/>
<path d="M118.604 87.426C118.604 87.426 116.968 87.5055 116.637 87.3708C116.306 87.2361 115.39 86.7011 115.524 86.0981C115.607 85.7235 116.285 86.3201 116.561 86.2097C116.837 86.0994 115.997 86.0185 115.956 85.8774C115.914 85.7363 116.649 85.6619 116.913 85.6208C117.177 85.5797 117.943 86.184 118.544 86.3482C119.144 86.5125 118.604 87.426 118.604 87.426Z" fill="#FFB27D"/>
<path d="M139.968 85.6554C139.968 85.6554 137.699 88.2138 134.944 88.5807C132.189 88.9476 128.117 89.761 126.865 89.7726C125.613 89.7841 118.485 87.5774 118.485 87.5774C118.485 87.5774 118.357 87.3516 118.507 86.8461C118.587 86.5658 118.767 86.3241 119.012 86.1661C119.012 86.1661 123.896 86.2854 126.174 86.6023C127.121 86.7306 133.572 82.9034 134.583 80.5927C134.98 79.6856 139.968 85.6554 139.968 85.6554Z" fill="#ED7D2B"/>
<path d="M73.3703 108.18H28.2488V145.238H73.3703V108.18Z" fill="#ED823A"/>
<path d="M50.8089 108.18H5.68738V145.238H50.8089V108.18Z" fill="#FF9E55"/>
<path d="M73.3434 135.84H66.1943L66.8229 133.836L66.1943 132.404H73.3434V135.84Z" fill="#DD732C"/>
<path d="M50.809 119.648H43.6587L44.2899 117.644L43.6587 116.212H50.809V119.648Z" fill="#FFB27D"/>
<path d="M50.809 116.212H57.9593L57.3294 118.217L57.9593 119.648H50.809V116.212Z" fill="#DD732C"/>
<path d="M5.68604 136.238H12.8364L12.2065 138.242L12.8364 139.673H5.68604V136.238Z" fill="#FFB27D"/>
<path d="M8.64233 115.724H21.6266V110.692H8.64233V115.724Z" fill="white"/>
<path d="M68.5077 71.1563H23.3861V108.214H68.5077V71.1563Z" fill="#ED823A"/>
<path d="M45.9476 71.1563H0.82605V108.214H45.9476V71.1563Z" fill="#FF9E55"/>
<path d="M68.4819 98.8164H61.3315L61.9614 96.8124L61.3315 95.3806H68.4819V98.8164Z" fill="#DD732C"/>
<path d="M45.9475 82.6251H38.7971L39.427 80.621L38.7971 79.1892H45.9475V82.6251Z" fill="#FFB27D"/>
<path d="M45.9475 79.1892H53.0966L52.4667 81.1932L53.0966 82.6251H45.9475V79.1892Z" fill="#DD732C"/>
<path d="M0.824707 99.214H7.97506L7.34517 101.218L7.97506 102.65H0.824707V99.214Z" fill="#FFB27D"/>
<path d="M3.77966 78.7015H16.7639V73.6696H3.77966V78.7015Z" fill="white"/>
<path d="M93.1803 53.5869H81.2136V147.679H93.1803V53.5869Z" fill="#163560"/>
<path d="M158.735 109.617H125.664C124.178 109.617 122.973 110.817 122.973 112.297V122.612C122.973 124.092 124.178 125.292 125.664 125.292H158.735C160.222 125.292 161.426 124.092 161.426 122.612V112.297C161.426 110.817 160.222 109.617 158.735 109.617Z" fill="#699DEE"/>
<path d="M97.1541 137.451L145.867 139.418V119.392L96.3464 120.196L97.1541 137.451Z" fill="#234884"/>
<path d="M110.331 152.542C116.22 146.676 116.22 137.166 110.331 131.301C104.442 125.435 94.8934 125.435 89.0042 131.301C83.1151 137.166 83.1152 146.676 89.0043 152.542C94.8934 158.408 104.442 158.408 110.331 152.542Z" fill="#2A4E96"/>
<path d="M110.269 141.986C111.037 137.253 107.808 132.796 103.056 132.031C98.3041 131.266 93.8293 134.483 93.0613 139.216C92.2933 143.949 95.523 148.406 100.275 149.171C105.027 149.936 109.501 146.719 110.269 141.986Z" fill="#163560"/>
<path d="M175.575 153.475C180.217 148.852 180.217 141.357 175.575 136.733C170.933 132.11 163.408 132.11 158.766 136.733C154.125 141.357 154.125 148.852 158.766 153.475C163.408 158.098 170.933 158.098 175.575 153.475Z" fill="#2A4E96"/>
<path d="M160.322 145.1C160.322 143.751 160.724 142.432 161.476 141.309C162.229 140.187 163.299 139.312 164.55 138.796C165.802 138.279 167.18 138.144 168.509 138.407C169.837 138.67 171.058 139.32 172.016 140.275C172.974 141.229 173.627 142.445 173.891 143.768C174.155 145.092 174.02 146.464 173.501 147.711C172.982 148.958 172.104 150.023 170.977 150.773C169.851 151.522 168.526 151.922 167.171 151.922C165.355 151.922 163.613 151.203 162.328 149.924C161.044 148.645 160.322 146.91 160.322 145.1V145.1Z" fill="#163560"/>
<path d="M158.554 106.517V115.463H145.987L115.944 135.126V149.744H145.666C147.159 149.744 148.59 149.153 149.645 148.102C150.701 147.051 151.294 145.625 151.294 144.138V140.834C151.294 139.073 151.723 137.339 152.544 135.779C153.364 134.219 154.551 132.88 156.004 131.877V131.877C157.663 130.733 159.633 130.12 161.65 130.12H171.137C171.748 130.12 172.352 130 172.916 129.768C173.48 129.535 173.993 129.194 174.424 128.764C174.856 128.334 175.199 127.824 175.432 127.262C175.666 126.7 175.786 126.098 175.786 125.49V111.477C175.786 110.162 175.261 108.9 174.328 107.97C173.394 107.04 172.127 106.517 170.806 106.517H158.554Z" fill="#FF9E55"/>
<path d="M97.305 124.979L93.183 124.527L116.35 69.8386C117.825 66.3437 120.304 63.3609 123.475 61.2649C126.647 59.1689 130.37 58.0532 134.176 58.0581H153.609C155.912 58.0605 158.121 58.973 159.75 60.5954C161.378 62.2178 162.295 64.4175 162.297 66.7119V115.463H158.348V66.7093C158.346 65.4579 157.847 64.2581 156.958 63.3732C156.07 62.4883 154.865 61.9906 153.609 61.9892H134.175C131.146 61.9851 128.183 62.8729 125.658 64.5408C123.134 66.2088 121.161 68.5826 119.987 71.364L97.305 124.979Z" fill="#163560"/>
<path d="M117.143 150.816C116.857 150.816 116.583 150.703 116.381 150.502C116.179 150.301 116.065 150.028 116.065 149.744V138.737C116.061 135.093 114.606 131.6 112.019 129.024C109.433 126.448 105.926 124.999 102.268 124.995C102.225 124.995 102.182 124.992 102.139 124.987C102.055 124.977 93.5977 124.071 87.1326 129.093C87.021 129.179 86.8934 129.243 86.7571 129.281C86.6208 129.318 86.4783 129.328 86.338 129.311C86.1976 129.294 86.062 129.249 85.939 129.18C85.816 129.11 85.7079 129.017 85.621 128.906C85.534 128.795 85.4699 128.668 85.4323 128.532C85.3946 128.396 85.3842 128.254 85.4016 128.114C85.419 127.975 85.4639 127.84 85.5337 127.717C85.6035 127.595 85.6968 127.487 85.8084 127.4C92.7488 122.012 101.415 122.757 102.326 122.852C106.545 122.873 110.583 124.556 113.561 127.533C116.538 130.51 118.212 134.539 118.217 138.741V149.748C118.216 150.031 118.102 150.302 117.901 150.502C117.7 150.702 117.428 150.815 117.143 150.816V150.816Z" fill="#163560"/>
<path d="M81.2138 144.8H2.16052V147.679H81.2138V144.8Z" fill="#163560"/>
<path d="M81.2149 114.028H78.5215V147.681H81.2149V114.028Z" fill="#163560"/>
<path d="M150.642 91.5995L149.216 109.613H126.781C126.781 109.613 125.593 104.58 129.315 104.36C133.036 104.141 141.95 102.801 141.95 102.801C141.95 102.801 141.512 91.6124 148.378 89.7469C148.654 89.6733 148.945 89.6665 149.225 89.7269C149.505 89.7873 149.766 89.9133 149.987 90.0943C150.209 90.2754 150.383 90.5064 150.497 90.7682C150.611 91.0299 150.661 91.3149 150.642 91.5995V91.5995Z" fill="#2A4E96"/>
<path d="M138.313 79.4304C138.313 79.4304 136.015 80.8225 133.523 80.4286C133.523 80.4286 133.03 80.3003 133.272 79.7281C133.184 79.4757 133.111 79.2187 133.051 78.9583C132.933 78.546 132.838 78.1275 132.766 77.7048L134.182 76.2229L135.522 74.8116C135.89 78.191 138.313 79.4304 138.313 79.4304Z" fill="#FFB27D"/>
<path d="M135.735 76.0908C135.735 76.0908 134.962 78.1436 133.052 78.9583C132.833 78.1628 132.69 77.3314 132.69 77.3314L134.18 76.2229L135.735 76.0908Z" fill="#ED985F"/>
<path d="M131.179 77.6328C131.179 77.6328 135.566 78.1794 135.874 75.4941C136.182 72.8087 136.954 71.0703 134.167 70.6084C131.379 70.1465 130.716 71.1113 130.391 71.9825C130.067 72.8536 130.045 77.4211 131.179 77.6328Z" fill="#FFB27D"/>
<path d="M137.259 70.1734C137.296 70.126 137.387 70.0862 137.588 70.0683C137.469 70.0066 137.336 69.9749 137.202 69.9759C137.148 69.6962 136.979 69.2061 136.488 69.1009C136.569 69.1439 136.64 69.2048 136.694 69.2788C136.748 69.3528 136.784 69.4381 136.8 69.5281C136.215 68.9726 134.997 68.5992 131.662 68.9867C127.27 69.4999 128.828 72.2532 129.411 72.5662C129.995 72.8793 131.394 71.908 132.46 71.9517C133.527 71.9953 133.786 73.5169 134.154 73.7132C134.523 73.9095 134.367 73.5439 134.846 73.3053C135.325 73.0666 135.401 73.871 135.28 74.3996C135.159 74.9282 135.856 75.5929 135.856 75.5929L136.5 74.841C137.144 74.0891 137.671 70.992 137.338 70.3505L137.259 70.1734Z" fill="#2C3A64"/>
<path d="M142.438 96.1696C142.438 96.1696 122.428 97.0599 119.699 99.0332C116.969 101.006 112.193 117.644 112.193 117.644C112.193 117.644 113.162 118.483 116.034 117.644C116.034 117.644 120.079 112.512 121.625 108.997C122.998 105.874 123.488 104.299 124.072 104.459C125.323 104.799 138.154 105.239 141.945 102.803C144.378 101.242 142.117 96.1683 142.438 96.1696Z" fill="#163560"/>
<path d="M138.313 79.0262C138.313 79.0262 140.878 81.1277 141.688 87.4029C142.498 93.678 143.403 99.1988 142.906 99.422C139.398 100.999 129.962 99.3887 130.198 95.6538C130.434 91.919 131.3 80.857 133.523 79.873C135.746 78.8889 138.313 79.0262 138.313 79.0262Z" fill="#FF9E55"/>
<path d="M120.039 96.3157C119.839 96.3984 119.613 96.399 119.413 96.317C119.212 96.235 119.052 96.0773 118.967 95.8782L114.812 85.9619C114.729 85.7621 114.729 85.5377 114.811 85.3377C114.894 85.1377 115.052 84.9784 115.252 84.8945V84.8945C115.453 84.8122 115.678 84.8121 115.878 84.8943C116.079 84.9765 116.239 85.1343 116.323 85.3333L120.478 95.2496C120.561 95.449 120.562 95.6731 120.48 95.8728C120.397 96.0726 120.239 96.2318 120.039 96.3157V96.3157Z" fill="#163560"/>
<path d="M119.785 90.7333C119.785 90.7333 118.206 91.1618 117.853 91.1015C117.5 91.0412 116.492 90.7166 116.492 90.0982C116.492 89.7133 117.282 90.1508 117.528 89.9841C117.774 89.8173 116.936 89.9186 116.865 89.7903C116.794 89.662 117.495 89.4311 117.744 89.3297C117.992 89.2284 118.869 89.6595 119.494 89.6903C120.119 89.721 119.785 90.7333 119.785 90.7333Z" fill="#FFB27D"/>
<path d="M140.264 84.4147C140.264 84.4147 138.602 87.3989 135.991 88.3496C133.38 89.3003 129.583 90.9669 128.36 91.2479C127.138 91.5289 119.702 90.9041 119.702 90.9041C119.702 90.9041 119.524 90.7116 119.565 90.1856C119.584 89.8959 119.707 89.6226 119.912 89.4158C119.912 89.4158 124.705 88.4843 126.996 88.3047C127.949 88.2303 133.42 83.1035 133.907 80.6312C134.107 79.6574 140.264 84.4147 140.264 84.4147Z" fill="#FF9E55"/>
<path d="M115.698 117.085C115.698 117.085 115.923 119.689 115.371 119.96L108.3 119.946C108.3 119.946 108.3 119.133 109.435 118.952C110.57 118.771 112.566 118.109 112.904 116.633C113.241 115.158 115.698 117.085 115.698 117.085Z" fill="#163560"/>
<path d="M111.892 89.3143H115.103C115.509 89.3141 115.905 89.4388 116.238 89.6714C116.57 89.9041 116.822 90.2333 116.959 90.614L117.888 93.1864C117.98 93.4434 118.018 93.7168 117.999 93.9891C117.98 94.2615 117.904 94.5269 117.776 94.7684L117.242 95.7742C116.614 96.9597 115.693 97.9663 114.567 98.6992C113.44 99.4321 112.144 99.8671 110.802 99.9632L106.886 100.244L110.021 90.6692C110.15 90.2759 110.4 89.9331 110.736 89.6898C111.072 89.4465 111.476 89.3151 111.892 89.3143V89.3143Z" fill="#163560"/>
<path d="M143.341 131.415L143.326 128.867L132.914 128.927L133.001 144L143.413 143.939L143.399 141.393L135.897 141.436L135.888 139.817L143.39 139.773L143.375 137.213L135.873 137.256L135.863 135.637L143.366 135.593L143.35 133.034L135.848 133.077L135.839 131.457L143.341 131.415Z" fill="white"/>
</g>
<defs>
<clipPath id="clip0_2_3147">
<rect width="194.339" height="144.801" fill="white" transform="translate(0.824707 12.2423)"/>
</clipPath>
</defs>
</svg>
